{"title":"Krrish 3 2013 Hindi Movies HDSCamRip x264 New Source Best Qualit","uid":9133044,"size":737049845,"categoryP":"video","categoryS":"movies","magnet":"?xt=urn:btih:4ed63a3a07b7541e73ad8c6ab10796f9f364c0d2&amp;dn=Krrish+3+2013+Hindi+Movies+HDSCamRip+x264+New+Source+Best+Qualit&amp;tr=udp%3A%2F%2Ftracker.openbittorrent.com%3A80&amp;tr=udp%3A%2F%2Fopen.demonii.com%3A1337&amp;tr=udp%3A%2F%2Ftracker.coppersurfer.tk%3A6969&amp;tr=udp%3A%2F%2Fexodus.desync.com%3A6969","seeders":1,"leechers":1,"uploader":"basicssom","files":2,"time":1383359847,"description":" &lt;a href=&quot;http://s5.postimg.org/hgeuxszk7/logo.png&quot; rel=&quot;nofollow&quot; target=&quot;_NEW&quot;&gt;http://s5.postimg.org/hgeuxszk7/logo.png&lt;/a&gt;\n\nKrrish 3 2013 Hindi Movies HDSCamRip x264 New Source Best Quality with Sample ~ â˜»rDXâ˜»\n\nPlease check SCREEN SHOTS first :\n &lt;a href=&quot;\nhttp://myimghost.cwahi.net/2013/11/Krrish3/1.html&quot; rel=&quot;nofollow&quot; target=&quot;_NEW&quot;&gt;\nhttp://myimghost.cwahi.net/2013/11/Krrish3/1.html&lt;/a&gt; &lt;a href=&quot;\nhttp://myimghost.cwahi.net/2013/11/Krrish3/2.html&quot; rel=&quot;nofollow&quot; target=&quot;_NEW&quot;&gt;\nhttp://myimghost.cwahi.net/2013/11/Krrish3/2.html&lt;/a&gt; &lt;a href=&quot;\nhttp://myimghost.cwahi.net/2013/11/Krrish3/3.html&quot; rel=&quot;nofollow&quot; target=&quot;_NEW&quot;&gt;\nhttp://myimghost.cwahi.net/2013/11/Krrish3/3.html&lt;/a&gt; &lt;a href=&quot;\nhttp://myimghost.cwahi.net/2013/11/Krrish3/4.html&quot; rel=&quot;nofollow&quot; target=&quot;_NEW&quot;&gt;\nhttp://myimghost.cwahi.net/2013/11/Krrish3/4.html&lt;/a&gt; &lt;a href=&quot;\nhttp://myimghost.cwahi.net/2013/11/Krrish3/5.html&quot; rel=&quot;nofollow&quot; target=&quot;_NEW&quot;&gt;\nhttp://myimghost.cwahi.net/2013/11/Krrish3/5.html&lt;/a&gt; &lt;a href=&quot;\nhttp://myimghost.cwahi.net/2013/11/Krrish3/6.html&quot; rel=&quot;nofollow&quot; target=&quot;_NEW&quot;&gt;\nhttp://myimghost.cwahi.net/2013/11/Krrish3/6.html&lt;/a&gt;\n\nAll rDX torrents are Seeding From the 1Gbps Seedbox 24X7\n &lt;a href=&quot;\nhttp://s5.postimg.org/8g2l6v4zr/image.jpg&quot; rel=&quot;nofollow&quot; target=&quot;_NEW&quot;&gt;\nhttp://s5.postimg.org/8g2l6v4zr/image.jpg&lt;/a&gt;\n &lt;a href=&quot;\nhttp://s5.postimg.org/bo72jwr9j/image.jpg&quot; rel=&quot;nofollow&quot; target=&quot;_NEW&quot;&gt;\nhttp://s5.postimg.org/bo72jwr9j/image.jpg&lt;/a&gt;\n &lt;a href=&quot;\nhttp://s5.postimg.org/hzca0bshz/image.jpg&quot; rel=&quot;nofollow&quot; target=&quot;_NEW&quot;&gt;\nhttp://s5.postimg.org/hzca0bshz/image.jpg&lt;/a&gt;\n\nFormat                                   : Matroska\nFormat version                           : Version 2\nFile size                                : 696 MiB\nDuration                                 : 2h 21mn\nOverall bit rate mode                    : Variable\nOverall bit rate                         : 688 Kbps\nEncoded date                             : UTC 2013-11-01 14:29:35\nWriting library                          : libebml v1.3.0 + libmatroska v1.4.0\n\nVideo\nID                                       : 1\nFormat                                   : AVC\nFormat/Info                              : Advanced Video Codec\nFormat profile                           : &lt;a class=&quot;__cf_email__&quot; href=&quot;/cdn-cgi/l/email-protection&quot; data-cfemail=&quot;c38baaa4ab838ff1edf2&quot;&gt;[email&amp;#160;protected]&lt;/a&gt;&lt;script cf-hash='f9e31' type=&quot;text/javascript&quot;&gt;\n/* &lt;![CDATA[ */!function(){try{var t=&quot;currentScript&quot;in document?document.currentScript:function(){for(var t=document.getElementsByTagName(&quot;script&quot;),e=t.length;e--;)if(t[e].getAttribute(&quot;cf-hash&quot;))return t[e]}();if(t&amp;&amp;t.previousSibling){var e,r,n,i,c=t.previousSibling,a=c.getAttribute(&quot;data-cfemail&quot;);if(a){for(e=&quot;&quot;,r=parseInt(a.substr(0,2),16),n=2;a.length-n;n+=2)i=parseInt(a.substr(n,2),16)^r,e+=String.fromCharCode(i);e=document.createTextNode(e),c.parentNode.replaceChild(e,c)}}}catch(u){}}();/* ]]&gt; */&lt;/script&gt;\nFormat settings, CABAC                   : Yes\nFormat settings, ReFrames                : 4 frames\nCodec ID                                 : V_MPEG4/ISO/AVC\nDuration                                 : 2h 21mn\nBit rate                                 : 563 Kbps\nWidth                                    : 600 pixels\nHeight                                   : 276 pixels\nDisplay aspect ratio                     : 2.2:1\nFrame rate mode                          : Constant\nFrame rate                               : 25.000 fps\nColor space                              : YUV\nChroma subsampling                       : 4:2:0\nBit depth                                : 8 bits\nScan type                                : Progressive\nBits/(Pixel*Frame)                       : 0.136\nStream size                              : 552 MiB (79%)\nWriting library                          : x264 core 133 r2334 a3ac64b\nLanguage                                 : English\nDefault                                  : Yes\nForced                                   : No\n\nAudio\nID                                       : 2\nFormat                                   : MPEG Audio\nFormat version                           : Version 1\nFormat profile                           : Layer 3\nMode                                     : Joint stereo\nMode extension                           : MS Stereo\nCodec ID                                 : A_MPEG/L3\nCodec ID/Hint                            : MP3\nDuration                                 : 2h 17mn\nBit rate mode                            : Variable\nBit rate                                 : 128 Kbps\nChannel(s)                               : 2 channels\nSampling rate                            : 48.0 KHz\nCompression mode                         : Lossy\nStream size                              : 126 MiB (18%)\nWriting library                          : LAME3.99r\nEncoding settings                        : -m j -V 4 -q 2 -lowpass 17 --abr 128\nDefault                                  : Yes\nForced                                   : No","torrent":{"xt":"urn:btih:4ed63a3a07b7541e73ad8c6ab10796f9f364c0d2","amp;dn":"Krrish+3+2013+Hindi+Movies+HDSCamRip+x264+New+Source+Best+Qualit","amp;tr":["udp%3A%2F%2Ftracker.openbittorrent.com%3A80","udp%3A%2F%2Fopen.demonii.com%3A1337","udp%3A%2F%2Ftracker.coppersurfer.tk%3A6969","udp%3A%2F%2Fexodus.desync.com%3A6969"],"infoHash":"4ed63a3a07b7541e73ad8c6ab10796f9f364c0d2","infoHashBuffer":{"type":"Buffer","data":[78,214,58,58,7,183,84,30,115,173,140,106,177,7,150,249,243,100,192,210]},"announce":[],"urlList":[]}}